PathFileType	4	(X/Y/Z)	S1_nor_slow_left.trc
DataRate	CameraRate	NumFrames	NumMarkers	Units	OrigDataRate	OrigDataStartFrame	OrigNumFrames
250.00	250.00	9	18	mm	250.00	1	12323
Frame#	Time	c7	r_should	l_should	clavicle	r_upa	r_elb_l	r_elb_m	r_low	r_wri_l	r_wri_m	r_met	l_upa	l_elb_l	l_elb_m	l_low	l_wri_l	l_wri_m	l_met
	X1	Y1	Z1	X2	Y2	Z2	X3	Y3	Z3	X4	Y4	Z4	X5	Y5	Z5	X6	Y6	Z6	X7	Y7	Z7	X8	Y8	Z8	X9	Y9	Z9	X10	Y10	Z10	X11	Y11	Z11	X12	Y12	Z12	X13	Y13	Z13	X14	Y14	Z14	X15	Y15	Z15	X16	Y16	Z16	X17	Y17	Z17	X18	Y18	Z18
1	0.00000	873.36249	1421.15491	85.75539	953.84064	1361.39807	264.44379	895.64008	1335.52551	-105.33318	999.61163	1288.32446	67.41530	924.43005	1171.97656	350.85309	930.52924	1073.50452	369.16873	846.35730	1053.91394	316.40219	902.40771	944.99298	394.53903	986.23730	868.28723	350.59439	920.94855	845.13672	374.90454	1030.67786	788.82867	363.14795	854.68750	1115.58179	-116.01205	848.19409	1060.69189	-120.40227	846.64093	1022.12061	-26.34235	953.10144	978.64807	-111.82386	1039.31091	1023.72601	-158.29765	nan	nan	nan	nan	nan	nan
2	0.00400	873.24884	1421.15002	85.86093	953.81750	1361.40613	264.50412	895.45410	1335.57227	-105.23887	999.54047	1288.34790	67.46839	924.52039	1171.99158	350.91751	930.66187	1073.52344	369.26013	846.44604	1053.90735	316.53394	902.57904	945.00171	394.66083	986.40686	868.31012	350.67847	921.13422	845.14697	375.02194	1030.88635	788.86627	363.23395	854.63190	1115.63416	-116.06726	848.22070	1060.83118	-120.51633	846.65900	1022.15686	-26.41251	953.26593	979.34204	-111.72831	1039.40588	1024.94873	-158.21007	nan	nan	nan	nan	nan	nan
3	0.00800	873.13721	1421.15857	85.97427	953.79193	1361.41492	264.57269	895.26654	1335.61304	-105.13854	999.45416	1288.38171	67.50536	924.51715	1172.07581	350.91656	930.79083	1073.53333	369.35220	846.54797	1053.88306	316.65878	902.74902	945.00513	394.77798	986.58221	868.33136	350.76077	921.32306	845.15491	375.13840	1031.09570	788.90356	363.32043	854.57977	1115.68054	-116.12865	848.24133	1060.97522	-120.63478	846.70227	1022.17340	-26.52550	953.44708	980.04480	-111.67121	1039.48169	1026.17334	-158.12576	nan	nan	nan	nan	nan	nan
4	0.01200	873.02411	1421.16199	86.08444	953.76758	1361.42163	264.64560	895.07611	1335.65356	-105.04206	999.36401	1288.41174	67.53757	924.40131	1172.24097	350.81763	930.91968	1073.54297	369.44592	846.64789	1053.85962	316.78104	902.92639	945.00665	394.90277	986.76300	868.35370	350.84528	921.51678	845.16180	375.25644	1031.30920	788.94025	363.40244	854.55011	1115.72974	-116.19607	848.24896	1061.13000	-120.74511	846.74823	1022.20056	-26.62388	953.70001	980.76733	-111.73663	1039.55090	1027.40137	-158.02277	nan	nan	nan	nan	nan	nan
5	0.01600	872.91382	1421.15686	86.19261	953.73993	1361.43030	264.70996	894.89227	1335.68555	-104.94727	999.28064	1288.43311	67.56865	924.44690	1172.28137	350.85828	931.05682	1073.55042	369.54099	846.75433	1053.82666	316.89752	903.10132	944.99713	395.02142	986.95099	868.37823	350.92929	921.71765	845.17084	375.36713	1031.52893	788.98315	363.48163	854.53784	1115.77979	-116.26073	848.27264	1061.29321	-120.85281	846.80249	1022.21594	-26.70077	953.94763	981.44958	-111.79435	1039.61328	1028.63916	-157.91539	nan	nan	nan	nan	nan	nan
6	0.02000	872.81000	1421.14880	86.29879	953.70502	1361.43335	264.77213	894.71429	1335.71741	-104.85364	999.19824	1288.45300	67.60988	924.51965	1172.29395	350.92014	931.18854	1073.55688	369.62567	846.86035	1053.79517	317.01392	903.27081	944.99200	395.13446	987.14874	868.39972	351.01752	921.92352	845.18225	375.47330	1031.75244	789.02374	363.56372	854.53461	1115.82751	-116.31877	848.30780	1061.44910	-120.95006	846.89117	1022.22266	-26.79298	954.20245	982.16864	-111.86475	1039.66858	1029.88330	-157.80882	nan	nan	nan	nan	nan	nan
7	0.02400	872.70483	1421.14331	86.40262	953.67468	1361.43506	264.83682	894.54553	1335.74976	-104.77082	999.11322	1288.47009	67.64973	924.69946	1172.22656	351.08035	931.30402	1073.55811	369.71078	846.97266	1053.76270	317.13983	903.45636	944.98279	395.24280	987.35754	868.42603	351.10510	922.13141	845.18994	375.58047	1031.97986	789.06909	363.65271	854.53210	1115.87170	-116.37044	848.34204	1061.61096	-121.04377	846.92572	1022.24329	-26.84985	954.48120	982.85223	-111.91621	1039.71948	1031.12866	-157.68153	nan	nan	nan	nan	nan	nan
8	0.02800	872.60437	1421.13953	86.50234	953.64813	1361.44165	264.90015	894.38330	1335.77539	-104.69425	999.03107	1288.48938	67.69791	924.99402	1172.06140	351.34216	931.42535	1073.55701	369.78964	847.08704	1053.73767	317.27045	903.63916	944.97693	395.35123	987.56628	868.45532	351.19412	922.35406	845.19324	375.68604	1032.22400	789.12341	363.73859	854.53241	1115.91187	-116.40938	848.38843	1061.76953	-121.12455	846.95703	1022.26758	-26.89612	954.74774	983.53192	-111.90246	1039.74561	1032.36487	-157.53001	nan	nan	nan	nan	nan	nan
9	0.03200	872.50134	1421.12720	86.58171	953.61945	1361.44592	264.96667	894.23181	1335.79980	-104.61819	998.95050	1288.50659	67.74657	925.11847	1172.02234	351.44843	931.55548	1073.56018	369.86224	847.20416	1053.71521	317.38892	903.82275	944.97028	395.45688	987.77448	868.48651	351.28369	922.57874	845.19250	375.79166	1032.47070	789.17700	363.82562	854.52783	1115.94458	-116.43702	848.42822	1061.93054	-121.20517	846.98029	1022.30023	-26.90800	954.90680	984.26001	-111.83664	1039.77368	1033.60986	-157.39130	nan	nan	nan	nan	nan	nan
